<svg xmlns="http://www.w3.org/2000/svg" width="31.667" height="28.148" viewBox="0 0 31.667 28.148">
  <path id="Icon_awesome-hotel" data-name="Icon awesome-hotel" d="M30.787,3.519a.879.879,0,0,0,.88-.88V.88a.879.879,0,0,0-.88-.88H.88A.879.879,0,0,0,0,.88V2.639a.879.879,0,0,0,.88.88h.879V24.63H.88a.879.879,0,0,0-.88.88v1.759a.879.879,0,0,0,.88.88H14.074v-4.4a.882.882,0,0,1,.88-.88h1.759a.882.882,0,0,1,.88.88v4.4H30.787a.879.879,0,0,0,.88-.88V25.509a.879.879,0,0,0-.88-.88h-.88V3.519ZM14.074,5.981a.757.757,0,0,1,.7-.7h2.111a.757.757,0,0,1,.7.7V8.093a.757.757,0,0,1-.7.7H14.778a.757.757,0,0,1-.7-.7V5.981Zm0,5.278a.757.757,0,0,1,.7-.7h2.111a.757.757,0,0,1,.7.7V13.37a.757.757,0,0,1-.7.7H14.778a.757.757,0,0,1-.7-.7ZM7.037,5.981a.757.757,0,0,1,.7-.7H9.852a.757.757,0,0,1,.7.7V8.093a.757.757,0,0,1-.7.7H7.741a.757.757,0,0,1-.7-.7Zm2.815,8.093H7.741a.757.757,0,0,1-.7-.7V11.259a.757.757,0,0,1,.7-.7H9.852a.757.757,0,0,1,.7.7V13.37A.757.757,0,0,1,9.852,14.074Zm.7,7.037a5.278,5.278,0,0,1,10.556,0ZM24.63,13.37a.757.757,0,0,1-.7.7H21.815a.757.757,0,0,1-.7-.7V11.259a.757.757,0,0,1,.7-.7h2.111a.757.757,0,0,1,.7.7Zm0-5.278a.757.757,0,0,1-.7.7H21.815a.757.757,0,0,1-.7-.7V5.981a.757.757,0,0,1,.7-.7h2.111a.757.757,0,0,1,.7.7Z" fill="#f2509b" opacity="0.15"/>
</svg>
